<?xml version="1.0" standalone="no"?>
<!DOCTYPE svg PUBLIC "-//W3C//DTD SVG 20010904//EN"
 "http://www.w3.org/TR/2001/REC-SVG-20010904/DTD/svg10.dtd">
<svg version="1.0" xmlns="http://www.w3.org/2000/svg"
 width="1216.000000pt" height="1093.000000pt" viewBox="0 0 1216.000000 1093.000000"
 preserveAspectRatio="xMidYMid meet">
<metadata>
Created by potrace 1.16, written by Peter Selinger 2001-2019
</metadata>
<g transform="translate(0.000000,1093.000000) scale(0.100000,-0.100000)"
fill="#000000" stroke="none">
<path d="M5346 9654 c-8 -21 -8 -2479 0 -2487 3 -3 50 10 103 30 53 20 116 43
141 51 25 8 51 19 58 25 9 7 12 204 12 923 0 503 3 914 6 914 6 0 206 -110
269 -147 11 -7 27 -15 35 -19 19 -9 380 -212 400 -225 8 -5 29 -16 45 -24 17
-9 48 -26 70 -39 l40 -24 3 -675 c2 -636 1 -675 -15 -680 -10 -3 -67 -24 -126
-46 -60 -23 -113 -41 -118 -41 -5 0 -9 247 -9 630 l0 630 -22 11 c-13 5 -41
21 -63 34 -64 38 -88 51 -128 73 -21 11 -43 25 -50 30 -7 5 -22 13 -34 16
l-23 7 0 -779 0 -780 -97 -35 c-54 -20 -123 -45 -153 -57 -30 -12 -75 -28
-100 -36 -25 -8 -54 -18 -65 -24 -11 -5 -58 -23 -105 -40 -47 -17 -94 -34
-105 -39 -11 -5 -51 -20 -90 -34 -38 -14 -99 -37 -135 -50 -36 -14 -94 -35
-130 -48 -36 -12 -69 -26 -75 -31 -5 -4 -15 -8 -22 -8 -7 0 -35 -10 -63 -22
l-50 -22 0 -673 0 -673 -27 6 c-16 4 -48 15 -72 25 -24 11 -48 19 -53 19 -6 0
-24 7 -41 15 -18 8 -102 39 -187 70 -85 30 -163 60 -172 65 -10 6 -25 10 -33
10 -13 0 -15 -174 -15 -1565 l0 -1565 1055 0 1055 0 0 844 c0 795 -1 844 -17
849 -10 3 -78 28 -152 56 -74 28 -138 51 -143 51 -4 0 -8 -331 -8 -735 l0
-735 -730 0 -730 0 0 1170 c0 644 1 1170 3 1170 4 0 280 -102 567 -210 118
-45 232 -86 253 -92 l37 -10 0 -679 0 -679 -135 0 -135 0 0 564 0 564 -72 28
c-40 15 -98 37 -128 49 -30 13 -70 26 -87 30 l-33 7 0 -791 0 -791 455 0 455
0 0 785 c0 443 4 785 9 785 5 0 42 -13 82 -29 41 -16 108 -41 149 -56 41 -15
89 -33 105 -40 17 -7 64 -25 105 -40 41 -15 109 -40 150 -55 41 -16 138 -52
215 -80 77 -28 212 -79 300 -112 88 -34 183 -69 210 -79 28 -10 79 -29 115
-42 36 -13 128 -47 205 -76 77 -28 149 -55 160 -60 11 -5 37 -15 58 -21 22 -7
51 -18 65 -26 15 -8 33 -14 39 -14 7 0 31 -7 53 -16 l40 -16 0 -569 0 -569
-432 2 -433 3 -3 393 -2 392 27 -6 c16 -4 48 -14 73 -24 25 -10 74 -29 110
-43 l65 -25 3 -181 2 -181 160 0 160 0 0 293 0 294 -32 11 c-118 40 -155 53
-173 61 -11 5 -33 14 -50 19 -16 6 -55 20 -85 32 -30 12 -98 37 -150 56 -52
19 -104 38 -115 43 -11 6 -31 13 -45 16 -14 4 -38 13 -55 21 -67 30 -198 73
-206 68 -5 -3 -9 -356 -9 -790 l0 -784 760 0 760 0 -2 842 -3 843 -125 47
c-69 27 -143 55 -165 63 -22 8 -98 36 -170 62 l-130 49 -3 1682 c-1 925 -5
1682 -8 1682 -7 0 -363 -131 -514 -189 -30 -11 -61 -21 -67 -21 -10 0 -13 150
-13 719 0 563 -3 721 -12 728 -7 6 -53 32 -103 58 -49 26 -140 76 -201 111
-61 35 -114 64 -117 64 -3 0 -47 24 -99 54 -51 29 -118 67 -148 83 -30 16 -71
39 -90 50 -20 11 -68 38 -108 59 -40 21 -81 44 -90 49 -10 6 -78 43 -152 84
-74 41 -186 103 -247 138 -62 35 -117 63 -122 63 -5 0 -12 -7 -15 -16z m1784
-3885 l0 -1390 -22 7 c-13 3 -34 12 -48 19 -14 7 -38 15 -55 19 -16 4 -43 14
-60 21 -16 8 -111 44 -210 80 -99 36 -194 73 -212 81 -17 7 -36 14 -43 14 -6
0 -32 9 -58 19 -26 10 -73 29 -104 41 l-58 22 0 738 0 738 38 12 c20 7 51 18
67 25 83 34 142 55 153 55 9 0 12 -147 12 -675 l0 -676 48 -20 c26 -12 65 -27
87 -34 22 -8 72 -25 110 -39 39 -14 71 -26 73 -26 1 0 2 434 2 965 0 1063 5
981 -62 950 -32 -14 -262 -101 -363 -136 -27 -10 -79 -29 -115 -42 -177 -66
-236 -88 -250 -94 -8 -4 -37 -14 -65 -23 l-50 -16 -3 -792 c-1 -436 -5 -792
-8 -792 -3 0 -20 7 -37 15 -18 8 -88 35 -157 60 -69 25 -139 52 -157 60 -17 8
-35 15 -39 15 -8 0 -111 37 -179 65 -16 6 -90 33 -162 60 l-133 48 0 627 0
628 118 43 c64 23 121 46 126 51 6 4 14 8 18 8 4 0 8 -254 8 -563 0 -625 -4
-586 65 -603 17 -4 35 -10 40 -14 6 -4 28 -13 50 -20 22 -6 54 -18 72 -26 17
-8 45 -17 62 -20 l31 -6 0 685 0 685 78 27 c42 16 91 34 107 41 73 30 164 64
174 64 6 0 19 5 29 10 19 11 219 86 272 102 19 5 40 14 45 18 6 4 26 13 45 18
35 11 237 85 275 101 11 5 52 20 90 34 90 33 239 89 290 109 22 9 46 16 53 17
9 1 12 -283 12 -1390z"/>
<path d="M4536 2138 c-33 -78 -162 -371 -255 -580 -56 -125 -101 -237 -101
-248 0 -20 5 -21 121 -18 l121 3 33 80 33 80 188 0 187 0 32 -80 32 -80 132
-3 c72 -1 131 -1 131 1 0 1 -59 135 -131 297 -71 162 -158 359 -192 437 l-62
142 -127 1 -128 0 -14 -32z m198 -359 c25 -64 46 -119 46 -122 0 -4 -47 -7
-105 -7 -58 0 -105 3 -105 6 0 23 105 262 111 252 4 -7 27 -65 53 -129z"/>
<path d="M5260 1730 l0 -440 120 0 120 0 0 222 0 222 112 -183 112 -182 55 3
56 3 112 190 113 189 0 -232 0 -232 115 0 115 0 0 440 0 441 -106 -3 -106 -3
-147 -247 c-80 -137 -148 -248 -151 -248 -3 1 -72 113 -155 250 l-150 250
-107 0 -108 0 0 -440z"/>
<path d="M6470 1730 l0 -440 125 0 125 0 0 440 0 440 -125 0 -125 0 0 -440z"/>
<path d="M6890 1730 l0 -440 120 0 120 0 2 219 3 220 110 -180 110 -179 55 2
55 3 110 183 110 183 3 -225 2 -226 120 0 120 0 0 303 c0 167 -3 365 -7 440
l-6 137 -103 0 -102 0 -147 -250 c-81 -137 -151 -248 -154 -245 -4 2 -74 114
-156 249 l-149 246 -108 0 -108 0 0 -440z"/>
<path d="M5135 1106 c-95 -42 -120 -155 -53 -232 50 -57 149 -69 208 -24 24
18 24 19 6 39 -18 19 -21 20 -42 6 -62 -40 -144 4 -144 76 0 28 26 75 45 83
29 11 80 6 102 -9 18 -13 22 -12 38 5 21 23 13 38 -31 56 -41 17 -90 17 -129
0z"/>
<path d="M6040 1098 c-101 -52 -106 -196 -8 -253 39 -23 119 -26 166 -6 31 13
32 15 32 72 0 59 0 59 -29 59 -28 0 -30 -3 -33 -42 -3 -43 -3 -43 -45 -46 -35
-3 -48 2 -68 22 -35 35 -35 97 0 131 28 29 88 34 122 10 18 -13 22 -12 38 5
21 23 13 38 -31 56 -48 20 -93 17 -144 -8z"/>
<path d="M6771 1098 c-133 -69 -96 -249 56 -274 55 -8 125 23 153 68 24 39 26
107 5 148 -37 71 -137 99 -214 58z m136 -62 c22 -19 28 -32 28 -66 0 -34 -6
-47 -28 -66 -62 -53 -147 -15 -147 66 0 81 85 119 147 66z"/>
<path d="M4390 1085 c0 -23 4 -25 45 -25 l45 0 0 -115 0 -115 35 0 35 0 0 115
0 115 45 0 c41 0 45 2 45 25 l0 25 -125 0 -125 0 0 -25z"/>
<path d="M4730 970 l0 -140 110 0 110 0 0 25 c0 24 -2 25 -75 25 l-75 0 0 35
0 35 65 0 c63 0 65 1 65 25 0 24 -2 25 -65 25 l-65 0 0 30 0 30 75 0 c73 0 75
1 75 25 l0 25 -110 0 -110 0 0 -140z"/>
<path d="M5420 970 l0 -140 30 0 c30 0 30 1 30 55 l0 55 70 0 70 0 0 -55 c0
-54 0 -55 30 -55 l30 0 0 140 0 140 -30 0 c-30 0 -30 -1 -30 -55 l0 -55 -70 0
-70 0 0 55 c0 54 0 55 -30 55 l-30 0 0 -140z"/>
<path d="M6350 970 l0 -140 35 0 c34 0 35 1 35 40 0 37 2 40 28 40 20 0 34
-10 55 -40 24 -34 34 -40 63 -40 l35 0 -30 44 -30 43 24 23 c33 31 40 71 20
113 -22 46 -51 57 -150 57 l-85 0 0 -140z"/>
<path d="M7110 1008 c0 -84 4 -109 20 -135 34 -57 135 -69 194 -22 33 26 46
75 46 177 l0 82 -35 0 -35 0 0 -93 c0 -106 -13 -137 -59 -137 -56 0 -66 18
-69 129 l-4 101 -29 0 -29 0 0 -102z"/>
<path d="M7490 970 l0 -140 35 0 c34 0 35 1 35 40 l0 40 50 0 c65 0 95 15 116
58 14 29 14 41 5 73 -16 54 -49 69 -156 69 l-85 0 0 -140z"/>
</g>
</svg>
