<?xml version="1.0" standalone="no"?>
<!DOCTYPE svg PUBLIC "-//W3C//DTD SVG 20010904//EN"
 "http://www.w3.org/TR/2001/REC-SVG-20010904/DTD/svg10.dtd">
<svg version="1.0" xmlns="http://www.w3.org/2000/svg"
 width="800.000000pt" height="600.000000pt" viewBox="0 0 800.000000 600.000000"
 preserveAspectRatio="xMidYMid meet">
<metadata>
Created by potrace 1.16, written by Peter Selinger 2001-2019
</metadata>
<g transform="translate(0.000000,600.000000) scale(0.100000,-0.100000)"
fill="#000000" stroke="none">
<path d="M1014 2980 l-71 -221 65 3 66 3 9 38 9 37 73 0 73 0 9 -37 9 -38 66
-3 67 -3 -73 218 -73 218 -79 3 -79 3 -71 -221z"/>
<path d="M1437 3194 c-4 -4 -7 -103 -7 -221 l0 -213 55 0 54 0 3 143 3 142 40
-142 40 -143 57 0 57 0 11 43 c21 77 72 252 75 255 2 2 1 -64 -2 -147 l-6
-151 56 0 57 0 0 220 0 221 -77 -3 -78 -3 -41 -140 c-22 -77 -43 -146 -45
-154 -3 -8 -26 55 -51 140 l-45 154 -74 3 c-41 1 -78 0 -82 -4z"/>
<path d="M2030 2980 l0 -220 60 0 60 0 -2 218 -3 217 -57 3 -58 3 0 -221z"/>
<path d="M2240 2980 l0 -220 50 0 49 0 3 153 3 152 33 -120 c57 -206 45 -186
110 -183 l57 3 40 144 40 145 3 -147 3 -147 54 0 55 0 0 220 0 220 -79 0 -80
0 -16 -57 c-56 -197 -71 -243 -75 -243 -3 0 -25 68 -49 150 l-44 150 -78 0
-79 0 0 -220z"/>
<path d="M2960 3150 l0 -50 55 0 55 0 0 -170 0 -170 60 0 60 0 0 170 0 170 50
0 50 0 0 50 0 50 -165 0 -165 0 0 -50z"/>
<path d="M3357 3193 c-4 -3 -7 -102 -7 -220 l0 -213 130 0 130 0 0 50 0 50
-70 0 -70 0 0 40 0 40 65 0 65 0 0 45 0 44 -62 3 c-63 3 -63 3 -66 36 l-3 32
70 0 71 0 0 50 0 50 -123 0 c-68 0 -127 -3 -130 -7z"/>
<path d="M3795 3186 c-73 -33 -115 -110 -115 -211 0 -99 35 -166 105 -203 35
-18 155 -20 198 -3 24 9 27 16 27 57 0 45 -1 46 -27 40 -92 -20 -118 -19 -148
7 -26 22 -30 32 -33 93 -5 117 41 160 140 130 l47 -14 15 39 c9 22 16 44 16
49 0 28 -171 40 -225 16z"/>
<path d="M4090 2980 l0 -220 60 0 60 0 0 90 0 90 70 0 70 0 0 -90 0 -90 60 0
60 0 -2 218 -3 217 -57 3 -58 3 0 -81 0 -80 -70 0 -70 0 0 80 0 80 -60 0 -60
0 0 -220z"/>
<path d="M4809 3172 c-72 -37 -103 -96 -103 -191 0 -87 17 -132 63 -174 51
-46 115 -60 216 -47 42 5 81 12 86 15 5 4 9 60 9 126 l0 119 -90 0 -90 0 0
-50 0 -50 35 0 c34 0 35 -1 35 -36 l0 -37 -46 6 c-68 7 -87 31 -92 116 -4 64
-2 70 26 102 25 28 37 33 73 34 24 0 58 -4 76 -8 30 -8 33 -6 48 29 8 20 15
40 15 44 0 16 -65 30 -135 30 -60 0 -82 -5 -126 -28z"/>
<path d="M5170 2981 l0 -221 60 0 60 0 0 80 c0 64 3 80 15 80 8 0 36 -36 61
-80 l47 -80 63 0 c35 0 64 2 64 5 0 3 -26 45 -59 93 l-59 88 34 37 c29 31 34
44 34 85 0 95 -46 124 -207 130 l-113 5 0 -222z"/>
<path d="M5672 3179 c-29 -15 -51 -36 -70 -68 -24 -40 -27 -56 -27 -131 0 -72
4 -92 25 -130 36 -63 92 -93 180 -94 142 -1 215 75 215 224 0 100 -30 163 -94
197 -60 31 -167 32 -229 2z m165 -93 c26 -23 28 -29 28 -106 0 -77 -2 -83 -28
-106 -38 -32 -72 -31 -108 5 -27 27 -29 35 -29 101 0 66 2 74 29 101 36 36 70
37 108 5z"/>
<path d="M6073 3184 c-3 -8 -4 -82 -1 -164 5 -160 15 -192 69 -233 56 -41 181
-42 237 0 63 47 67 60 70 244 l4 169 -61 0 -61 0 0 -153 c0 -168 -4 -183 -55
-193 -22 -4 -38 0 -55 14 -24 20 -25 24 -28 176 l-4 156 -54 0 c-40 0 -56 -4
-61 -16z"/>
<path d="M6540 2981 l0 -221 60 0 60 0 0 75 0 75 48 0 c53 0 101 25 128 66 26
39 25 125 -2 161 -34 45 -69 57 -186 61 l-108 4 0 -221z"/>
</g>
</svg>
