<?xml version="1.0" encoding="UTF-8" standalone="no" ?>
<!DOCTYPE svg PUBLIC "-//W3C//DTD SVG 1.1//EN" "http://www.w3.org/Graphics/SVG/1.1/DTD/svg11.dtd">
<svg xmlns="http://www.w3.org/2000/svg" xmlns:xlink="http://www.w3.org/1999/xlink" version="1.1" width="1280" height="1024" viewBox="0 0 1280 1024" xml:space="preserve">
<desc>Created with Fabric.js 4.4.0</desc>
<defs>
</defs>
<g transform="matrix(1 0 0 1 640 512)" id="background-logo"  >
<rect style="stroke: none; stroke-width: 0; stroke-dasharray: none; stroke-linecap: butt; stroke-dashoffset: 0; stroke-linejoin: miter; stroke-miterlimit: 4; fill: rgb(255,255,255); fill-opacity: 0; fill-rule: nonzero; opacity: 1;"  paint-order="stroke"  x="-640" y="-512" rx="0" ry="0" width="1280" height="1024" />
</g>
<g transform="matrix(1.9211538461538462 0 0 1.9211538461538462 610.1821849264916 520.084559822385)" id="text-logo-path-group"  >
<g style=""  paint-order="stroke"   >
		<g transform="matrix(1 0 0 1 0 0)" id="text-logo-path-0"  >
<linearGradient id="SVGID_185347" gradientUnits="userSpaceOnUse" gradientTransform="matrix(1 0 0 1 0.36000000000001364 -42.42)"  x1="0" y1="0" x2="0" y2="68">
<stop offset="0%" style="stop-color:rgb(23,234,217);stop-opacity: 1"/>
<stop offset="100%" style="stop-color:rgb(96,120,234);stop-opacity: 1"/>
</linearGradient>
<path style="stroke: none; stroke-width: 0; stroke-dasharray: none; stroke-linecap: butt; stroke-dashoffset: 0; stroke-linejoin: miter; stroke-miterlimit: 4; fill: url(#SVGID_185347); fill-rule: nonzero; opacity: 1;"  paint-order="stroke"  transform=" translate(-180.96, 20.91)" d="M 0.36 -0.3 L 0.36 -0.3 L 7.8 -41.52 Q 7.86 -41.76 8.1 -41.76 L 8.1 -41.76 L 16.8 -41.76 Q 17.04 -41.76 17.1 -41.52 L 17.1 -41.52 L 24.24 -0.3 Q 24.3 0 24 0 L 24 0 L 17.34 0 Q 17.1 0 17.04 -0.3 L 17.04 -0.3 L 16.38 -4.68 L 8.22 -4.68 L 7.56 -0.3 Q 7.5 0 7.26 0 L 7.26 0 L 0.6 0 Q 0.36 0 0.36 -0.3 Z M 12.12 -27.96 L 9.42 -11.1 L 15.18 -11.1 L 12.72 -27.96 L 12.36 -30.18 L 12.12 -27.96 Z M 35.04 0 L 28.26 0 Q 28.02 0 28.02 -0.3 L 28.02 -0.3 L 28.14 -41.52 Q 28.14 -41.76 28.38 -41.76 L 28.38 -41.76 L 35.7 -41.76 Q 35.94 -41.76 36.12 -41.52 L 36.12 -41.52 L 41.58 -33.6 L 47.04 -41.52 Q 47.22 -41.76 47.46 -41.76 L 47.46 -41.76 L 54.84 -41.76 Q 55.08 -41.76 55.08 -41.52 L 55.08 -41.52 L 55.2 -0.3 Q 55.2 0 54.96 0 L 54.96 0 L 48.18 0 Q 47.94 0 47.94 -0.3 L 47.94 -0.3 L 47.88 -30.9 L 41.58 -21.78 L 35.34 -30.9 L 35.28 -0.3 Q 35.28 0 35.04 0 L 35.04 0 Z M 67.32 0 L 60.54 0 Q 60.24 0 60.24 -0.3 L 60.24 -0.3 L 60.3 -41.52 Q 60.3 -41.76 60.54 -41.76 L 60.54 -41.76 L 67.26 -41.76 Q 67.5 -41.76 67.5 -41.52 L 67.5 -41.52 L 67.56 -0.3 Q 67.56 0 67.32 0 L 67.32 0 Z M 79.86 0 L 73.08 0 Q 72.84 0 72.84 -0.3 L 72.84 -0.3 L 72.96 -41.52 Q 72.96 -41.76 73.2 -41.76 L 73.2 -41.76 L 80.52 -41.76 Q 80.76 -41.76 80.94 -41.52 L 80.94 -41.52 L 86.4 -33.6 L 91.86 -41.52 Q 92.04 -41.76 92.28 -41.76 L 92.28 -41.76 L 99.66 -41.76 Q 99.9 -41.76 99.9 -41.52 L 99.9 -41.52 L 100.02 -0.3 Q 100.02 0 99.78 0 L 99.78 0 L 93 0 Q 92.76 0 92.76 -0.3 L 92.76 -0.3 L 92.7 -30.9 L 86.4 -21.78 L 80.16 -30.9 L 80.1 -0.3 Q 80.1 0 79.86 0 L 79.86 0 Z M 126.72 0 L 119.94 0 Q 119.7 0 119.7 -0.3 L 119.7 -0.3 L 119.7 -34.5 L 111.9 -34.5 Q 111.6 -34.5 111.6 -34.8 L 111.6 -34.8 L 111.66 -41.52 Q 111.66 -41.76 111.9 -41.76 L 111.9 -41.76 L 134.7 -41.76 Q 135 -41.76 135 -41.52 L 135 -41.52 L 135 -34.8 Q 135 -34.5 134.76 -34.5 L 134.76 -34.5 L 126.9 -34.5 L 126.96 -0.3 Q 126.96 0 126.72 0 L 126.72 0 Z M 157.56 0 L 138.18 0 Q 137.94 0 137.94 -0.3 L 137.94 -0.3 L 138 -41.52 Q 138 -41.76 138.24 -41.76 L 138.24 -41.76 L 157.5 -41.76 Q 157.74 -41.76 157.74 -41.46 L 157.74 -41.46 L 157.74 -34.74 Q 157.74 -34.5 157.5 -34.5 L 157.5 -34.5 L 145.2 -34.5 L 145.2 -25.14 L 157.5 -25.14 Q 157.74 -25.14 157.74 -24.9 L 157.74 -24.9 L 157.8 -18.12 Q 157.8 -17.88 157.56 -17.88 L 157.56 -17.88 L 145.2 -17.88 L 145.2 -7.38 L 157.56 -7.38 Q 157.8 -7.38 157.8 -7.08 L 157.8 -7.08 L 157.8 -0.24 Q 157.8 0 157.56 0 L 157.56 0 Z M 173.22 0.6 L 173.22 0.6 Q 169.92 0.6 167.25 -1.05 Q 164.58 -2.7 163.02 -5.46 Q 161.46 -8.22 161.46 -11.64 L 161.46 -11.64 L 161.52 -30.36 Q 161.52 -33.66 163.05 -36.39 Q 164.58 -39.12 167.25 -40.77 Q 169.92 -42.42 173.22 -42.42 L 173.22 -42.42 Q 176.52 -42.42 179.16 -40.8 Q 181.8 -39.18 183.36 -36.45 Q 184.92 -33.72 184.92 -30.36 L 184.92 -30.36 L 184.92 -27.6 Q 184.92 -27.36 184.68 -27.36 L 184.68 -27.36 L 177.96 -27.36 Q 177.72 -27.36 177.72 -27.6 L 177.72 -27.6 L 177.72 -30.36 Q 177.72 -32.34 176.43 -33.78 Q 175.14 -35.22 173.22 -35.22 L 173.22 -35.22 Q 171.06 -35.22 169.92 -33.75 Q 168.78 -32.28 168.78 -30.36 L 168.78 -30.36 L 168.78 -11.64 Q 168.78 -9.42 170.07 -8.04 Q 171.36 -6.66 173.22 -6.66 L 173.22 -6.66 Q 175.14 -6.66 176.43 -8.19 Q 177.72 -9.72 177.72 -11.64 L 177.72 -11.64 L 177.72 -14.4 Q 177.72 -14.64 177.96 -14.64 L 177.96 -14.64 L 184.74 -14.64 Q 184.98 -14.64 184.98 -14.4 L 184.98 -14.4 L 184.98 -11.64 Q 184.98 -8.22 183.39 -5.46 Q 181.8 -2.7 179.16 -1.05 Q 176.52 0.6 173.22 0.6 Z M 196.38 0 L 189.6 0 Q 189.36 0 189.36 -0.3 L 189.36 -0.3 L 189.42 -41.52 Q 189.42 -41.76 189.72 -41.76 L 189.72 -41.76 L 196.38 -41.76 Q 196.68 -41.76 196.68 -41.52 L 196.68 -41.52 L 196.62 -25.2 L 205.62 -25.2 L 205.62 -41.52 Q 205.62 -41.76 205.86 -41.76 L 205.86 -41.76 L 212.52 -41.76 Q 212.82 -41.76 212.82 -41.52 L 212.82 -41.52 L 212.94 -0.3 Q 212.94 0 212.64 0 L 212.64 0 L 205.92 0 Q 205.62 0 205.62 -0.3 L 205.62 -0.3 L 205.62 -17.94 L 196.62 -17.94 L 196.62 -0.3 Q 196.62 0 196.38 0 L 196.38 0 Z M 237.72 0.6 L 237.72 0.6 Q 234.48 0.6 231.84 -1.02 Q 229.2 -2.64 227.61 -5.37 Q 226.02 -8.1 226.02 -11.46 L 226.02 -11.46 L 226.02 -30.48 Q 226.02 -33.72 227.61 -36.45 Q 229.2 -39.18 231.87 -40.8 Q 234.54 -42.42 237.72 -42.42 L 237.72 -42.42 Q 241.02 -42.42 243.69 -40.83 Q 246.36 -39.24 247.92 -36.54 Q 249.48 -33.84 249.48 -30.48 L 249.48 -30.48 L 249.48 -27.72 Q 249.48 -27.48 249.18 -27.48 L 249.18 -27.48 L 242.46 -27.48 Q 242.22 -27.48 242.22 -27.72 L 242.22 -27.72 L 242.22 -30 Q 242.22 -32.28 240.93 -33.78 Q 239.64 -35.28 237.72 -35.28 L 237.72 -35.28 Q 235.98 -35.28 234.63 -33.84 Q 233.28 -32.4 233.28 -30.48 L 233.28 -30.48 L 233.28 -11.46 Q 233.28 -9.48 234.6 -8.07 Q 235.92 -6.66 237.72 -6.66 L 237.72 -6.66 Q 239.64 -6.66 240.93 -8.04 Q 242.22 -9.42 242.22 -11.46 L 242.22 -11.46 L 242.22 -14.4 L 238.02 -14.4 Q 237.72 -14.4 237.72 -14.7 L 237.72 -14.7 L 237.72 -21.42 Q 237.72 -21.72 238.02 -21.72 L 238.02 -21.72 L 249.24 -21.72 Q 249.48 -21.72 249.48 -21.42 L 249.48 -21.42 L 249.48 -11.46 Q 249.48 -8.1 247.89 -5.37 Q 246.3 -2.64 243.66 -1.02 Q 241.02 0.6 237.72 0.6 Z M 260.76 0 L 253.98 0 Q 253.74 0 253.74 -0.3 L 253.74 -0.3 L 253.86 -41.52 Q 253.86 -41.76 254.1 -41.76 L 254.1 -41.76 L 266.22 -41.76 Q 269.46 -41.76 272.19 -40.17 Q 274.92 -38.58 276.54 -35.91 Q 278.16 -33.24 278.16 -29.88 L 278.16 -29.88 Q 278.16 -27.66 277.5 -25.89 Q 276.84 -24.12 275.94 -22.89 Q 275.04 -21.66 274.32 -21.06 L 274.32 -21.06 Q 277.56 -17.46 277.56 -12.6 L 277.56 -12.6 L 277.62 -0.3 Q 277.62 0 277.32 0 L 277.32 0 L 270.54 0 Q 270.3 0 270.3 -0.18 L 270.3 -0.18 L 270.3 -12.6 Q 270.3 -14.76 268.77 -16.35 Q 267.24 -17.94 265.02 -17.94 L 265.02 -17.94 L 261.06 -17.94 L 261 -0.3 Q 261 0 260.76 0 L 260.76 0 Z M 261.06 -34.56 L 261.06 -25.14 L 266.22 -25.14 Q 268.08 -25.14 269.52 -26.52 Q 270.96 -27.9 270.96 -29.88 L 270.96 -29.88 Q 270.96 -31.8 269.55 -33.18 Q 268.14 -34.56 266.22 -34.56 L 266.22 -34.56 L 261.06 -34.56 Z M 293.46 0.6 L 293.46 0.6 Q 290.22 0.6 287.55 -1.05 Q 284.88 -2.7 283.26 -5.43 Q 281.64 -8.16 281.64 -11.46 L 281.64 -11.46 L 281.7 -30.48 Q 281.7 -33.78 283.29 -36.48 Q 284.88 -39.18 287.58 -40.8 Q 290.28 -42.42 293.46 -42.42 L 293.46 -42.42 Q 296.7 -42.42 299.34 -40.8 Q 301.98 -39.18 303.57 -36.48 Q 305.16 -33.78 305.16 -30.48 L 305.16 -30.48 L 305.22 -11.46 Q 305.22 -8.16 303.63 -5.43 Q 302.04 -2.7 299.37 -1.05 Q 296.7 0.6 293.46 0.6 Z M 293.46 -6.66 L 293.46 -6.66 Q 295.26 -6.66 296.61 -8.13 Q 297.96 -9.6 297.96 -11.46 L 297.96 -11.46 L 297.9 -30.48 Q 297.9 -32.46 296.64 -33.84 Q 295.38 -35.22 293.46 -35.22 L 293.46 -35.22 Q 291.6 -35.22 290.28 -33.87 Q 288.96 -32.52 288.96 -30.48 L 288.96 -30.48 L 288.96 -11.46 Q 288.96 -9.48 290.28 -8.07 Q 291.6 -6.66 293.46 -6.66 Z M 321.18 0.6 L 321.18 0.6 Q 318 0.6 315.3 -1.05 Q 312.6 -2.7 311.01 -5.46 Q 309.42 -8.22 309.42 -11.52 L 309.42 -11.52 L 309.54 -41.52 Q 309.54 -41.76 309.78 -41.76 L 309.78 -41.76 L 316.5 -41.76 Q 316.74 -41.76 316.74 -41.52 L 316.74 -41.52 L 316.74 -11.52 Q 316.74 -9.48 318.03 -8.07 Q 319.32 -6.66 321.18 -6.66 L 321.18 -6.66 Q 323.1 -6.66 324.39 -8.07 Q 325.68 -9.48 325.68 -11.52 L 325.68 -11.52 L 325.68 -41.52 Q 325.68 -41.76 325.92 -41.76 L 325.92 -41.76 L 332.64 -41.76 Q 332.88 -41.76 332.88 -41.52 L 332.88 -41.52 L 333 -11.52 Q 333 -8.16 331.41 -5.4 Q 329.82 -2.64 327.15 -1.02 Q 324.48 0.6 321.18 0.6 Z M 344.76 0 L 338.04 0 Q 337.74 0 337.74 -0.3 L 337.74 -0.3 L 337.86 -41.52 Q 337.86 -41.76 338.1 -41.76 L 338.1 -41.76 L 349.62 -41.76 Q 355.14 -41.76 358.35 -38.4 Q 361.56 -35.04 361.56 -29.28 L 361.56 -29.28 Q 361.56 -25.02 359.88 -21.9 Q 358.2 -18.78 355.5 -17.1 Q 352.8 -15.42 349.62 -15.42 L 349.62 -15.42 L 345.06 -15.42 L 345.06 -0.3 Q 345.06 0 344.76 0 L 344.76 0 Z M 345.06 -34.56 L 345.06 -22.68 L 349.62 -22.68 Q 351.54 -22.68 352.95 -24.51 Q 354.36 -26.34 354.36 -29.28 L 354.36 -29.28 Q 354.36 -31.62 353.1 -33.12 Q 351.84 -34.62 349.62 -34.62 L 349.62 -34.62 L 345.06 -34.56 Z" stroke-linecap="round" />
</g>
</g>
</g>
<g transform="matrix(0.9630921952865451 0 0 0.9630921952865451 611.0755214649529 512.2422992966289)" id="logo-logo"  >
<g style="opacity: 0.3;"  paint-order="stroke"   >
		<g transform="matrix(1.66899094977951 0 0 -1.66899094977951 0 2.842171e-14)"  >
<path style="stroke: none; stroke-width: 1; stroke-dasharray: none; stroke-linecap: butt; stroke-dashoffset: 0; stroke-linejoin: miter; stroke-miterlimit: 4; fill: rgb(55,182,255); fill-rule: nonzero; opacity: 1;"  paint-order="stroke"  transform=" translate(11.686999999999998, -7.776499999999999)" d="M 0 0 L -15.444 42.278 L -39.292 42.278 L -31.173000000000002 64.50999999999999 L -7.073 64.50999999999999 L 16.496 0 Z M 27.507 -30.132 L 34.384 -48.959 L 17.888 -48.959 L 7.607 -20.814 L 24.104 -20.814 L 46.261 -20.814 L 79.017 -20.814 L 56.215 42.278 L 34.082 42.278 L 49.366 0 L 38.657 0 L 7.48 85.322 L -45.727 85.322 L -61.452 42.278 L -88.425 42.278 L -96.028 21.463 L -69.059 21.463 L -46.898 21.463 L -30 21.463 L -22.155 0 L -38.25 0 L -56.132000000000005 -48.959 L -72.628 -48.959 L -50.302 12.145999999999994 L -72.463 12.145999999999994 L -102.39099999999999 -69.769 L -41.57999999999999 -69.769 L -23.69199999999999 -20.814000000000007 L -14.54999999999999 -20.814000000000007 L 3.338 -69.769 L 64.148 -69.769 L 49.66799999999999 -30.132000000000005 z" stroke-linecap="round" />
</g>
</g>
</g>
</svg>